<mxfile host="app.diagrams.net" modified="2022-09-10T11:08:53.095Z" agent="5.0 (Macintosh; Intel Mac OS X 10_15_7) AppleWebKit/537.36 (KHTML, like Gecko) Chrome/105.0.0.0 Safari/537.36" etag="OANt4lWr9gGDAOMFyXWl" version="20.3.0" type="github">
  <diagram id="KQV1Xonl_BWTCX21V4Bf" name="第 1 页">
    <mxGraphModel dx="1088" dy="798" grid="1" gridSize="10" guides="1" tooltips="1" connect="1" arrows="1" fold="1" page="1" pageScale="1" pageWidth="1169" pageHeight="1654" math="0" shadow="0">
      <root>
        <mxCell id="0" />
        <mxCell id="1" parent="0" />
        <mxCell id="ptuJYP1ZCTwAgOqQj-ir-1" value="&lt;b&gt;&lt;font style=&quot;font-size: 20px;&quot;&gt;Data Area&lt;/font&gt;&lt;/b&gt;" style="rounded=0;whiteSpace=wrap;html=1;strokeWidth=2;sketch=1;" vertex="1" parent="1">
          <mxGeometry x="230" y="780" width="220" height="60" as="geometry" />
        </mxCell>
        <mxCell id="ptuJYP1ZCTwAgOqQj-ir-2" value="&lt;b&gt;&lt;font style=&quot;font-size: 20px;&quot;&gt;Index Area&lt;/font&gt;&lt;/b&gt;" style="rounded=0;whiteSpace=wrap;html=1;strokeWidth=2;sketch=1;" vertex="1" parent="1">
          <mxGeometry x="450" y="780" width="140" height="60" as="geometry" />
        </mxCell>
        <mxCell id="ptuJYP1ZCTwAgOqQj-ir-3" value="&lt;b&gt;Meta Data&lt;/b&gt;" style="rounded=0;whiteSpace=wrap;html=1;strokeWidth=2;fontSize=20;sketch=1;" vertex="1" parent="1">
          <mxGeometry x="590" y="780" width="120" height="60" as="geometry" />
        </mxCell>
        <mxCell id="ptuJYP1ZCTwAgOqQj-ir-4" value="" style="shape=curlyBracket;whiteSpace=wrap;html=1;rounded=1;flipH=1;strokeWidth=2;fontSize=20;rotation=90;sketch=1;" vertex="1" parent="1">
          <mxGeometry x="640" y="800" width="20" height="120" as="geometry" />
        </mxCell>
        <mxCell id="ptuJYP1ZCTwAgOqQj-ir-5" value="&lt;b&gt;24 Bit&lt;/b&gt;" style="text;html=1;align=center;verticalAlign=middle;resizable=0;points=[];autosize=1;strokeColor=none;fillColor=none;fontSize=20;sketch=1;" vertex="1" parent="1">
          <mxGeometry x="610" y="870" width="80" height="40" as="geometry" />
        </mxCell>
        <mxCell id="ptuJYP1ZCTwAgOqQj-ir-6" value="" style="shape=curlyBracket;whiteSpace=wrap;html=1;rounded=1;strokeWidth=2;fontSize=20;rotation=90;sketch=1;" vertex="1" parent="1">
          <mxGeometry x="510" y="690" width="20" height="140" as="geometry" />
        </mxCell>
        <mxCell id="ptuJYP1ZCTwAgOqQj-ir-7" value="&lt;b&gt;N Size&lt;/b&gt;" style="text;html=1;align=center;verticalAlign=middle;resizable=0;points=[];autosize=1;strokeColor=none;fillColor=none;fontSize=20;sketch=1;" vertex="1" parent="1">
          <mxGeometry x="480" y="710" width="80" height="40" as="geometry" />
        </mxCell>
        <mxCell id="ptuJYP1ZCTwAgOqQj-ir-8" value="" style="curved=1;endArrow=classic;html=1;rounded=0;fontSize=20;exitX=0.675;exitY=-0.033;exitDx=0;exitDy=0;exitPerimeter=0;entryX=0.6;entryY=-0.025;entryDx=0;entryDy=0;entryPerimeter=0;strokeWidth=2;sketch=1;" edge="1" parent="1" source="ptuJYP1ZCTwAgOqQj-ir-3" target="ptuJYP1ZCTwAgOqQj-ir-7">
          <mxGeometry width="50" height="50" relative="1" as="geometry">
            <mxPoint x="650" y="760" as="sourcePoint" />
            <mxPoint x="530" y="700" as="targetPoint" />
            <Array as="points">
              <mxPoint x="690" y="720" />
              <mxPoint x="640" y="680" />
            </Array>
          </mxGeometry>
        </mxCell>
        <mxCell id="ptuJYP1ZCTwAgOqQj-ir-9" value="" style="curved=1;endArrow=classic;html=1;rounded=0;strokeWidth=2;fontSize=20;sketch=1;" edge="1" parent="1">
          <mxGeometry width="50" height="50" relative="1" as="geometry">
            <mxPoint x="545" y="840" as="sourcePoint" />
            <mxPoint x="350" y="850" as="targetPoint" />
            <Array as="points">
              <mxPoint x="545" y="870" />
              <mxPoint x="470" y="890" />
            </Array>
          </mxGeometry>
        </mxCell>
      </root>
    </mxGraphModel>
  </diagram>
</mxfile>
